<?xml version="1.0" encoding="utf-8"?>
<!-- Generator: Adobe Illustrator 16.0.0, SVG Export Plug-In . SVG Version: 6.00 Build 0)  -->
<!DOCTYPE svg PUBLIC "-//W3C//DTD SVG 1.1//EN" "http://www.w3.org/Graphics/SVG/1.1/DTD/svg11.dtd">
<svg version="1.1" id="Layer_1" xmlns="http://www.w3.org/2000/svg" xmlns:xlink="http://www.w3.org/1999/xlink" x="0px" y="0px"
	 width="291.562px" height="326.406px" viewBox="0 0 291.562 326.406" enable-background="new 0 0 291.562 326.406"
	 xml:space="preserve">
<path id="path856" d="M283.203,0c-1.992,0-4.961,0.664-8.008,3.75L145.742,133.125L16.367,3.75C13.398,0.664,10.352,0,8.359,0
	C3.438,0,0,3.828,0,9.375v38.438c0,3.906,1.562,6.328,3.672,8.477c1.758,1.758,118.945,118.32,120.742,120.078
	c2.344,2.344,6.25,3.984,9.57,3.984h23.594c3.242,0,7.266-1.641,9.609-3.984c1.758-1.758,118.945-118.32,120.703-120.078
	c2.109-2.148,3.672-4.57,3.672-8.477V9.375C291.562,3.828,288.164,0,283.203,0"/>
<path id="path858" d="M283.203,146.016c-1.992,0-4.961,0.703-8.008,3.828L145.742,279.219L16.367,149.844
	c-2.969-3.125-6.016-3.828-8.008-3.828c-4.922,0-8.359,3.906-8.359,9.453v38.359c0,3.906,1.562,6.406,3.672,8.516
	c1.758,1.758,118.945,118.359,120.742,120.117c2.344,2.344,6.25,3.945,9.57,3.945h23.594c3.242,0,7.266-1.602,9.609-3.945
	c1.758-1.758,118.945-118.359,120.703-120.117c2.109-2.109,3.672-4.609,3.672-8.516v-38.359
	C291.562,149.922,288.164,146.016,283.203,146.016"/>
</svg>
