<?xml version="1.0" encoding="utf-8"?>
<!-- Generator: Adobe Illustrator 15.1.0, SVG Export Plug-In . SVG Version: 6.00 Build 0)  -->
<!DOCTYPE svg PUBLIC "-//W3C//DTD SVG 1.1//EN" "http://www.w3.org/Graphics/SVG/1.1/DTD/svg11.dtd">
<svg version="1.1" id="Layer_1" xmlns="http://www.w3.org/2000/svg" xmlns:xlink="http://www.w3.org/1999/xlink" x="0px" y="0px"
	 width="201px" height="32px" viewBox="0 0 201 32" enable-background="new 0 0 201 32" xml:space="preserve">
<path fill="#935EA6" d="M19.792,29.309L8.283,18.727l-3.385,2.601v7.981H3.045V2.264h1.853v16.854
	c0.974-0.761,1.936-1.521,2.886-2.28c0.95-0.76,1.9-1.52,2.851-2.28l6.806-5.344h2.922L9.78,17.552l12.685,11.759h-2.672
	L19.792,29.309z"/>
<path fill="#935EA6" d="M43.932,23.162c-0.44,1.247-1.117,2.357-2.031,3.331c-0.914,0.973-2.079,1.758-3.492,2.353
	c-1.413,0.592-3.094,0.889-5.042,0.889c-1.901,0-3.552-0.284-4.953-0.854c-1.401-0.569-2.572-1.336-3.51-2.298
	c-0.939-0.962-1.639-2.072-2.102-3.331c-0.463-1.259-0.695-2.589-0.695-3.991c0-1.662,0.297-3.147,0.891-4.454
	c0.594-1.307,1.395-2.405,2.405-3.296c1.009-0.891,2.197-1.568,3.563-2.031c1.366-0.463,2.833-0.695,4.4-0.695
	c1.544,0,2.999,0.231,4.365,0.695c1.366,0.464,2.553,1.14,3.563,2.031c1.009,0.89,1.811,1.99,2.405,3.296
	c0.594,1.306,0.891,2.792,0.891,4.454v0.036C44.59,20.627,44.371,21.916,43.932,23.162L43.932,23.162z M42.026,15.608
	c-0.475-1.081-1.135-1.995-1.977-2.744c-0.842-0.749-1.835-1.318-2.975-1.71c-1.14-0.392-2.376-0.588-3.706-0.588
	c-1.354,0-2.601,0.202-3.741,0.606c-1.14,0.404-2.132,0.98-2.975,1.728c-0.843,0.748-1.503,1.663-1.977,2.744
	c-0.474,1.081-0.713,2.297-0.713,3.652c0,1.14,0.19,2.239,0.57,3.296c0.38,1.057,0.956,1.984,1.728,2.779
	c0.772,0.796,1.746,1.438,2.922,1.924c1.176,0.486,2.571,0.73,4.187,0.73h0.036c1.568,0,2.939-0.243,4.116-0.73
	c1.177-0.486,2.149-1.128,2.922-1.924c0.772-0.795,1.348-1.723,1.728-2.779s0.57-2.156,0.57-3.296c0-1.377-0.238-2.606-0.713-3.687
	L42.026,15.608z"/>
<path fill="#935EA6" d="M67.075,29.309V15.412c0-0.689-0.071-1.324-0.214-1.906s-0.451-1.11-0.926-1.585
	c-0.38-0.38-0.903-0.706-1.568-0.98s-1.556-0.41-2.672-0.41c-1.378,0-2.874,0.297-4.49,0.891c-0.38,0.143-0.79,0.321-1.229,0.534
	s-0.879,0.458-1.318,0.73c-0.44,0.274-0.861,0.552-1.265,0.838c-0.404,0.286-0.761,0.547-1.069,0.784v15h-1.853V2.265h1.853v9.906
	c0.713-0.499,1.431-0.95,2.156-1.354c0.725-0.404,1.455-0.748,2.191-1.034c0.878-0.356,1.74-0.611,2.583-0.766
	c0.843-0.154,1.68-0.231,2.512-0.231c2.423,0,4.252,0.641,5.487,1.924c0.57,0.57,0.992,1.224,1.265,1.96
	c0.273,0.736,0.41,1.639,0.41,2.708v13.933h-1.853V29.309z"/>
<path d="M91.696,28.738c-0.404-0.451-0.671-0.891-0.801-1.318c-0.13-0.427-0.196-0.939-0.196-1.531h-0.036
	c-0.547,0.641-1.176,1.176-1.888,1.603s-1.438,0.766-2.174,1.016c-0.737,0.249-1.449,0.421-2.138,0.517
	c-0.689,0.097-1.283,0.144-1.782,0.144c-1.616,0-2.946-0.16-3.991-0.481c-1.045-0.32-1.877-0.729-2.494-1.229
	c-0.618-0.499-1.051-1.057-1.3-1.675s-0.374-1.235-0.374-1.853c0-1.283,0.338-2.353,1.015-3.207
	c0.677-0.855,1.686-1.562,3.029-2.121c1.342-0.558,3.023-1.002,5.042-1.336c2.019-0.332,4.37-0.605,7.055-0.82V15.52
	c0-0.926-0.119-1.74-0.357-2.441c-0.238-0.701-0.635-1.282-1.194-1.746c-0.558-0.463-1.289-0.807-2.191-1.033
	c-0.902-0.226-2.019-0.338-3.349-0.338c-1.069,0-1.913,0.03-2.53,0.089c-0.617,0.059-1.022,0.119-1.211,0.178
	c-0.19,0.059-0.297,0.089-0.321,0.089l-0.071-0.57c1.497-0.261,2.886-0.392,4.169-0.392c2.827,0,4.828,0.511,6.004,1.532
	c1.176,1.021,1.764,2.507,1.764,4.454v9.977c0,0.477,0.011,0.861,0.036,1.158s0.077,0.559,0.16,0.784s0.196,0.446,0.338,0.659
	c0.142,0.213,0.344,0.463,0.606,0.748v0.071L91.696,28.738L91.696,28.738z M90.663,17.051c-2.518,0.215-4.739,0.469-6.663,0.766
	c-1.924,0.298-3.534,0.701-4.828,1.211c-1.295,0.512-2.275,1.158-2.939,1.943c-0.664,0.783-0.998,1.758-0.998,2.922
	c0,0.522,0.107,1.057,0.321,1.603c0.214,0.546,0.6,1.046,1.158,1.497s1.324,0.826,2.298,1.123c0.974,0.297,2.221,0.445,3.741,0.445
	c0.428,0,0.968-0.035,1.621-0.107s1.342-0.232,2.067-0.48c0.724-0.25,1.461-0.601,2.209-1.052c0.748-0.45,1.419-1.057,2.013-1.817
	V17.051L90.663,17.051z"/>
<path d="M116.051,26.439c-0.486,0.512-1.08,0.969-1.781,1.373c-0.701,0.403-1.521,0.73-2.459,0.979
	c-0.939,0.249-2.025,0.374-3.261,0.374c-1.378,0-2.702-0.189-3.973-0.57c-1.271-0.38-2.399-0.974-3.386-1.781
	c-0.985-0.808-1.77-1.836-2.352-3.082c-0.582-1.248-0.873-2.737-0.873-4.473c0-1.686,0.303-3.147,0.909-4.382
	s1.401-2.263,2.388-3.082c0.985-0.819,2.113-1.431,3.385-1.835c1.27-0.404,2.57-0.606,3.901-0.606c2.091,0,3.771,0.333,5.042,0.998
	s2.322,1.544,3.154,2.637l-0.605,0.356c-0.761-1.021-1.724-1.841-2.887-2.459c-1.163-0.618-2.732-0.926-4.703-0.926
	c-1.211,0-2.41,0.19-3.599,0.57c-1.188,0.38-2.245,0.956-3.171,1.728c-0.926,0.772-1.675,1.74-2.245,2.904
	c-0.57,1.164-0.855,2.53-0.855,4.097c0,1.639,0.285,3.047,0.855,4.223c0.57,1.177,1.319,2.139,2.245,2.887
	c0.926,0.748,1.978,1.301,3.154,1.656c1.176,0.356,2.381,0.535,3.615,0.535c1.116,0,2.108-0.107,2.975-0.321
	c0.867-0.214,1.621-0.511,2.264-0.89c0.643-0.381,1.199-0.808,1.675-1.283s0.878-0.985,1.211-1.532l0.642,0.321
	c-0.356,0.547-0.778,1.074-1.265,1.586L116.051,26.439z"/>
<path d="M139.657,27.812c-0.499,0.237-1.069,0.457-1.71,0.658s-1.331,0.368-2.067,0.5c-0.737,0.129-1.509,0.195-2.315,0.195
	c-0.903,0-1.865-0.077-2.887-0.232c-1.021-0.154-1.966-0.475-2.832-0.961c-0.867-0.486-1.587-1.182-2.156-2.084
	c-0.57-0.904-0.855-2.091-0.855-3.563v-11.9h-5.915V9.783h5.915v-3.99h0.713v3.991h13.221v0.642h-13.221v11.901
	c0,1.331,0.25,2.399,0.748,3.207s1.141,1.437,1.924,1.889c0.784,0.451,1.657,0.754,2.619,0.908c0.962,0.153,1.895,0.231,2.797,0.231
	c0.736,0,1.455-0.071,2.156-0.215c0.701-0.143,1.354-0.32,1.959-0.533c0.605-0.215,1.152-0.434,1.639-0.66
	c0.487-0.225,0.896-0.432,1.229-0.622l0.321,0.641c-0.356,0.19-0.785,0.404-1.283,0.642L139.657,27.812z"/>
<path d="M146.818,5.685V2.834h0.713v2.851H146.818z M146.818,28.738V9.782h0.713v18.956H146.818z"/>
<path d="M164.135,28.738h-0.677L153.16,9.782h0.783l4.918,9.264c0.83,1.568,1.656,3.112,2.477,4.632
	c0.819,1.521,1.633,3.029,2.441,4.525h0.07c0.832-1.567,1.657-3.111,2.477-4.633c0.818-1.521,1.645-3.051,2.476-4.596l4.917-9.192
	h0.748L164.135,28.738L164.135,28.738z"/>
<path d="M178.923,19.152c0,1.759,0.298,3.238,0.892,4.437c0.594,1.199,1.348,2.168,2.263,2.904c0.914,0.735,1.93,1.265,3.047,1.586
	s2.196,0.481,3.243,0.481c1.021,0,2.084-0.09,3.189-0.268c1.104-0.178,2.119-0.374,3.047-0.588c0.926-0.214,1.982-0.499,3.172-0.855
	l0.035,0.534c-1.26,0.38-2.358,0.677-3.297,0.89c-0.938,0.213-1.953,0.416-3.046,0.606s-2.103,0.285-3.028,0.285
	c-1.354,0-2.68-0.214-3.974-0.642c-1.294-0.426-2.44-1.115-3.438-2.066c-0.854-0.831-1.537-1.854-2.049-3.064
	c-0.511-1.211-0.766-2.672-0.766-4.383c0-1.52,0.262-2.88,0.784-4.08c0.522-1.2,1.271-2.215,2.245-3.046
	c0.902-0.784,1.947-1.401,3.136-1.853c1.188-0.452,2.542-0.677,4.062-0.677c1.33,0,2.59,0.25,3.777,0.748s2.245,1.247,3.172,2.245
	c0.76,0.832,1.383,1.818,1.87,2.957c0.488,1.139,0.729,2.422,0.729,3.848h-19.062H178.923z M196.488,15.323
	c-0.428-1.033-1.027-1.947-1.799-2.743c-0.771-0.796-1.687-1.431-2.744-1.906c-1.057-0.475-2.227-0.713-3.51-0.713
	c-1.424,0-2.72,0.226-3.884,0.677c-1.163,0.451-2.161,1.069-2.993,1.853c-0.832,0.784-1.479,1.692-1.941,2.726
	c-0.463,1.034-0.695,2.133-0.695,3.295h18.279C197.152,17.42,196.916,16.356,196.488,15.323L196.488,15.323z"/>
</svg>
